<?xml version="1.0" standalone="no"?>
<!DOCTYPE svg PUBLIC "-//W3C//DTD SVG 20010904//EN"
 "http://www.w3.org/TR/2001/REC-SVG-20010904/DTD/svg10.dtd">
<svg version="1.0" xmlns="http://www.w3.org/2000/svg"
 width="3135.000000pt" height="3135.000000pt" viewBox="0 0 3135.000000 3135.000000"
 preserveAspectRatio="xMidYMid meet">
<metadata>
Created by potrace 1.14, written by Peter Selinger 2001-2017
</metadata>
<g transform="translate(0.000000,3135.000000) scale(0.100000,-0.100000)"
fill="#000000" stroke="none">
<path d="M26397 25393 c-1 0 -101 -4 -222 -7 -121 -4 -238 -8 -260 -10 -22 -2
-85 -7 -140 -11 -146 -10 -174 -13 -235 -19 -30 -4 -77 -9 -105 -11 -27 -3
-66 -8 -85 -10 -19 -3 -53 -7 -75 -10 -59 -7 -315 -44 -350 -50 -16 -3 -66
-12 -110 -20 -44 -8 -96 -17 -115 -20 -19 -3 -129 -26 -245 -51 -258 -56 -232
-50 -285 -64 -25 -7 -52 -13 -60 -15 -187 -39 -864 -254 -1110 -352 -8 -4 -17
-7 -20 -8 -3 -1 -18 -7 -35 -14 -16 -7 -86 -35 -153 -62 -113 -46 -164 -67
-247 -105 -16 -7 -73 -33 -125 -56 -151 -68 -531 -259 -698 -352 -255 -141
-618 -365 -802 -494 -36 -25 -101 -70 -145 -101 -44 -30 -109 -77 -145 -104
-36 -26 -76 -56 -89 -65 -13 -9 -69 -52 -124 -94 -55 -43 -104 -78 -109 -78
-4 0 -97 51 -206 114 -178 102 -691 363 -847 431 -33 15 -78 35 -100 45 -84
37 -112 49 -175 75 -36 14 -78 32 -95 40 -16 7 -48 20 -70 28 -70 25 -369 138
-390 147 -111 48 -841 269 -1005 305 -8 2 -71 17 -140 34 -99 24 -254 59 -335
75 -5 2 -35 8 -65 14 -30 6 -66 13 -80 16 -14 2 -72 13 -130 25 -58 11 -118
23 -135 25 -16 3 -97 16 -180 30 -82 13 -172 27 -200 31 -27 3 -57 8 -65 10
-8 2 -42 6 -75 10 -90 9 -149 17 -155 20 -3 2 -43 6 -89 10 -46 4 -91 8 -100
10 -28 5 -159 17 -316 29 -49 4 -117 9 -150 12 -255 22 -497 29 -995 28 -482
0 -680 -6 -995 -29 -49 -3 -108 -8 -130 -10 -22 -2 -76 -6 -120 -10 -44 -3
-98 -8 -120 -10 -22 -2 -67 -6 -100 -9 -33 -3 -76 -8 -95 -11 -19 -3 -60 -7
-90 -10 -30 -4 -66 -8 -80 -10 -14 -2 -54 -7 -90 -10 -36 -4 -74 -9 -85 -11
-11 -2 -44 -7 -74 -10 -30 -3 -62 -7 -70 -9 -22 -4 -87 -13 -141 -21 -37 -5
-247 -38 -375 -60 -24 -4 -170 -31 -270 -50 -11 -2 -47 -9 -80 -15 -57 -10
-417 -88 -595 -128 -47 -11 -141 -34 -210 -51 -69 -18 -132 -33 -140 -35 -8
-2 -123 -33 -255 -69 -1287 -357 -2455 -829 -3710 -1501 -49 -26 -94 -51 -100
-55 -5 -4 -39 -23 -75 -42 -219 -118 -709 -411 -995 -596 -120 -78 -446 -296
-527 -353 -42 -30 -125 -88 -184 -129 -59 -41 -112 -80 -118 -85 -6 -6 -27
-22 -46 -35 -45 -31 -303 -222 -310 -230 -3 -3 -43 -34 -90 -69 -117 -89 -439
-345 -484 -386 -6 -6 -49 -42 -96 -80 -47 -38 -98 -82 -115 -96 -16 -15 -82
-71 -145 -125 -63 -55 -127 -110 -141 -124 -14 -14 -51 -46 -81 -72 -30 -26
-72 -64 -95 -85 -22 -21 -67 -62 -99 -92 -322 -294 -832 -807 -1139 -1146 -49
-54 -101 -111 -115 -126 -98 -105 -355 -406 -509 -594 -68 -82 -140 -170 -160
-194 -20 -24 -52 -65 -71 -90 -19 -25 -60 -78 -91 -116 -128 -160 -548 -730
-594 -804 -6 -10 3 -8 26 6 19 11 61 35 94 53 33 18 74 41 90 50 87 48 155 85
368 199 231 123 648 334 866 438 184 88 293 139 341 161 25 11 81 37 125 57
347 160 1138 489 1365 568 25 9 81 30 125 47 44 17 87 33 95 35 8 2 29 9 45
15 182 73 1077 366 1205 396 8 1 78 21 155 44 128 37 541 147 587 155 11 2 28
7 38 10 10 3 27 8 37 10 10 2 56 13 103 24 90 23 628 140 670 146 14 3 61 11
105 19 241 45 294 55 335 61 25 3 52 8 60 10 8 2 35 7 60 10 25 3 56 8 70 10
14 3 39 7 55 9 48 7 118 18 137 22 9 1 43 5 74 9 32 3 60 8 63 9 3 2 37 7 74
11 37 3 77 8 88 10 11 2 48 7 82 10 34 3 78 8 97 10 96 12 120 14 180 20 36 4
81 8 100 10 59 6 171 15 245 20 274 19 312 21 545 31 426 18 1160 3 1490 -31
25 -2 79 -7 120 -10 41 -4 89 -8 105 -10 17 -2 57 -7 90 -10 33 -3 71 -8 85
-10 14 -2 52 -6 85 -10 33 -3 67 -8 75 -10 8 -2 42 -6 75 -10 33 -3 69 -8 80
-11 11 -2 36 -6 55 -9 43 -5 216 -33 250 -40 14 -2 75 -14 135 -25 132 -25
141 -27 219 -44 140 -31 295 -67 351 -82 33 -8 78 -20 100 -25 129 -32 615
-181 680 -209 11 -4 90 -34 175 -65 764 -281 1484 -690 2086 -1186 300 -247
611 -558 853 -854 105 -128 241 -311 241 -325 0 -7 -32 -105 -71 -219 -89
-260 -336 -983 -354 -1036 -40 -121 -242 -697 -318 -905 -240 -662 -443 -1173
-667 -1675 -140 -315 -362 -775 -486 -1005 -63 -118 -134 -249 -154 -285 -10
-16 -37 -64 -60 -105 -241 -425 -604 -975 -864 -1310 -86 -112 -230 -295 -236
-300 -3 -3 -52 -61 -110 -130 -57 -69 -111 -132 -120 -140 -8 -8 -51 -55 -95
-105 -233 -260 -550 -572 -835 -821 -25 -21 -50 -43 -56 -49 -6 -5 -29 -25
-52 -43 -23 -19 -51 -43 -64 -54 -102 -92 -475 -376 -668 -510 -442 -307 -851
-549 -1325 -786 -145 -72 -373 -182 -379 -182 -2 0 -39 -17 -82 -37 -43 -20
-81 -38 -84 -38 -5 -2 -10 -4 -157 -65 -54 -23 -107 -45 -118 -50 -51 -24
-510 -199 -535 -205 -8 -2 -28 -9 -45 -15 -113 -45 -729 -242 -799 -256 -12
-2 -32 -8 -46 -13 -14 -5 -62 -19 -108 -31 -45 -13 -81 -24 -80 -26 2 -1 28
-5 58 -9 30 -3 62 -8 70 -10 8 -2 38 -6 65 -10 65 -7 203 -25 235 -30 14 -2
50 -7 80 -10 30 -3 62 -8 70 -10 8 -2 46 -6 83 -10 37 -3 76 -8 85 -10 9 -1
49 -6 87 -9 39 -4 77 -9 85 -11 8 -2 47 -7 85 -10 39 -3 84 -8 100 -10 17 -2
57 -7 90 -10 33 -3 74 -8 90 -10 17 -2 62 -7 100 -10 39 -4 90 -8 115 -11 25
-3 63 -7 85 -9 22 -2 72 -7 110 -10 39 -3 88 -8 110 -10 51 -6 140 -13 230
-20 39 -3 93 -7 120 -10 53 -4 146 -11 280 -20 106 -7 207 -14 280 -20 33 -2
116 -7 185 -10 69 -4 150 -8 180 -10 51 -4 244 -12 455 -20 772 -28 1703 -24
2390 10 228 11 278 14 370 20 50 4 117 8 150 10 77 5 206 14 270 20 28 2 84 7
125 10 127 10 143 11 430 40 30 3 73 8 95 10 22 3 63 7 90 10 28 3 66 8 85 10
19 3 76 9 125 15 148 18 159 19 195 25 19 2 55 7 80 10 55 7 186 25 219 30 13
2 45 7 70 11 59 8 90 12 121 18 14 3 42 8 63 11 79 11 115 17 222 35 61 10
126 21 145 25 19 3 60 10 90 16 30 6 69 13 85 15 23 4 431 86 595 120 14 3 54
12 90 20 36 9 76 18 90 20 14 3 72 17 130 30 58 14 112 27 120 29 100 22 504
130 690 185 58 17 113 32 123 35 34 8 279 86 452 143 94 31 172 57 175 57 3 1
12 5 20 8 8 3 60 22 115 41 161 56 262 94 385 142 177 70 361 145 405 164 22
10 110 48 195 85 154 67 735 351 860 420 64 36 365 208 443 253 122 71 558
356 698 457 262 188 571 434 760 605 16 14 73 66 128 115 55 50 187 178 293
285 189 191 220 224 343 365 33 38 76 87 96 109 62 72 193 237 296 376 242
327 430 625 636 1012 26 49 87 154 135 235 113 188 311 552 318 583 0 3 24 55
53 115 82 175 105 227 176 400 76 185 209 543 221 595 1 8 16 53 32 100 45
130 171 548 187 620 2 8 28 112 59 230 47 185 146 603 160 680 2 14 7 36 10
50 3 14 8 36 10 50 3 14 16 81 31 150 14 69 28 139 31 155 2 17 7 37 9 45 2 8
6 31 9 50 3 19 8 46 11 60 3 14 8 39 11 55 15 85 14 79 29 155 2 14 6 36 9 50
5 28 24 132 31 170 3 13 7 40 10 60 3 20 7 45 9 57 3 12 8 43 12 70 5 26 9 50
9 53 1 3 5 28 10 55 4 28 9 59 11 70 4 21 10 58 19 110 49 302 56 341 59 369
2 11 6 37 10 56 8 48 22 133 42 255 2 17 6 41 9 55 2 14 7 43 10 65 3 22 8 51
10 65 2 14 11 68 20 120 8 52 17 104 19 115 3 18 18 114 30 190 3 17 16 98 31
180 14 83 28 164 31 180 2 17 9 53 14 80 5 28 11 64 14 80 2 17 9 55 16 85 6
30 12 69 15 85 6 47 65 348 101 520 2 11 6 31 9 45 3 14 19 88 35 165 17 77
33 151 36 165 3 14 7 33 10 42 3 9 6 25 8 35 2 10 14 59 26 108 12 50 23 97
25 105 17 76 118 443 165 595 12 39 22 75 24 80 1 6 17 55 36 110 19 55 35
102 35 105 2 12 17 57 25 75 5 11 25 65 45 120 19 55 40 109 45 120 5 11 27
65 49 120 126 319 326 705 510 985 42 63 79 120 83 125 5 6 47 62 94 125 48
63 112 144 143 180 31 36 70 81 86 100 50 58 286 292 349 345 33 28 64 55 70
60 117 109 469 345 676 455 14 7 32 17 40 21 8 5 29 15 45 23 17 8 82 38 145
69 252 120 545 223 875 307 164 42 431 97 560 116 22 3 51 7 64 9 13 2 45 7
70 11 25 3 56 7 69 9 13 2 53 7 90 11 37 3 75 8 85 10 10 2 55 6 100 10 45 3
98 8 117 10 19 1 89 6 155 10 66 3 121 7 122 8 2 2 -189 130 -201 135 -6 2
-15 8 -21 13 -33 27 -360 223 -485 291 -120 64 -444 225 -560 277 -117 53
-421 176 -520 212 -368 132 -677 224 -990 297 -74 17 -153 36 -175 41 -41 10
-184 38 -233 46 -15 2 -38 7 -52 9 -63 13 -77 15 -105 19 -59 9 -111 17 -160
26 -27 5 -108 16 -180 25 -71 9 -146 18 -165 20 -19 2 -64 7 -100 10 -36 3
-76 8 -90 10 -14 2 -72 7 -130 10 -58 4 -121 8 -140 10 -55 6 -639 22 -643 18z"/>
</g>
</svg>
